<?xml version="1.0" encoding="UTF-8" standalone="no"?>
<!DOCTYPE svg PUBLIC "-//W3C//DTD SVG 1.1//EN"
 "http://www.w3.org/Graphics/SVG/1.1/DTD/svg11.dtd">
<!-- Generated by graphviz version 2.43.20190912.0211 (20190912.0211)
 -->
<!-- Title: G Pages: 1 -->
<svg width="929pt" height="1848pt"
 viewBox="0.00 0.00 929.44 1848.00" xmlns="http://www.w3.org/2000/svg" xmlns:xlink="http://www.w3.org/1999/xlink">
<g id="graph0" class="graph" transform="scale(1 1) rotate(0) translate(4 1844)">
<title>G</title>
<polygon fill="white" stroke="transparent" points="-4,4 -4,-1844 925.44,-1844 925.44,4 -4,4"/>
<g id="clust1" class="cluster">
<title>cluster_Global</title>
<path fill="none" stroke="gray" d="M729.44,-8C729.44,-8 901.44,-8 901.44,-8 907.44,-8 913.44,-14 913.44,-20 913.44,-20 913.44,-1820 913.44,-1820 913.44,-1826 907.44,-1832 901.44,-1832 901.44,-1832 729.44,-1832 729.44,-1832 723.44,-1832 717.44,-1826 717.44,-1820 717.44,-1820 717.44,-20 717.44,-20 717.44,-14 723.44,-8 729.44,-8"/>
<text text-anchor="middle" x="815.44" y="-1819.2" font-family="Times,serif" font-size="11.00" fill="gray">Global</text>
</g>
<g id="clust2" class="cluster">
<title>cluster_\App</title>
<path fill="none" stroke="gray" d="M737.44,-582C737.44,-582 893.44,-582 893.44,-582 899.44,-582 905.44,-588 905.44,-594 905.44,-594 905.44,-1792 905.44,-1792 905.44,-1798 899.44,-1804 893.44,-1804 893.44,-1804 737.44,-1804 737.44,-1804 731.44,-1804 725.44,-1798 725.44,-1792 725.44,-1792 725.44,-594 725.44,-594 725.44,-588 731.44,-582 737.44,-582"/>
<text text-anchor="middle" x="815.44" y="-1791.2" font-family="Times,serif" font-size="11.00" fill="gray">App</text>
</g>
<g id="clust3" class="cluster">
<title>cluster_\App\Tests</title>
<path fill="none" stroke="gray" d="M763.94,-1668C763.94,-1668 866.94,-1668 866.94,-1668 872.94,-1668 878.94,-1674 878.94,-1680 878.94,-1680 878.94,-1764 878.94,-1764 878.94,-1770 872.94,-1776 866.94,-1776 866.94,-1776 763.94,-1776 763.94,-1776 757.94,-1776 751.94,-1770 751.94,-1764 751.94,-1764 751.94,-1680 751.94,-1680 751.94,-1674 757.94,-1668 763.94,-1668"/>
<text text-anchor="middle" x="815.44" y="-1763.2" font-family="Times,serif" font-size="11.00" fill="gray">Tests</text>
</g>
<g id="clust4" class="cluster">
<title>cluster_\App\Tests\Website</title>
<path fill="none" stroke="gray" d="M771.94,-1676C771.94,-1676 858.94,-1676 858.94,-1676 864.94,-1676 870.94,-1682 870.94,-1688 870.94,-1688 870.94,-1736 870.94,-1736 870.94,-1742 864.94,-1748 858.94,-1748 858.94,-1748 771.94,-1748 771.94,-1748 765.94,-1748 759.94,-1742 759.94,-1736 759.94,-1736 759.94,-1688 759.94,-1688 759.94,-1682 765.94,-1676 771.94,-1676"/>
<text text-anchor="middle" x="815.44" y="-1735.2" font-family="Times,serif" font-size="11.00" fill="gray">Website</text>
</g>
<g id="clust5" class="cluster">
<title>cluster_\App\Form</title>
<path fill="none" stroke="gray" d="M761.44,-1102C761.44,-1102 869.44,-1102 869.44,-1102 875.44,-1102 881.44,-1108 881.44,-1114 881.44,-1114 881.44,-1648 881.44,-1648 881.44,-1654 875.44,-1660 869.44,-1660 869.44,-1660 761.44,-1660 761.44,-1660 755.44,-1660 749.44,-1654 749.44,-1648 749.44,-1648 749.44,-1114 749.44,-1114 749.44,-1108 755.44,-1102 761.44,-1102"/>
<text text-anchor="middle" x="815.44" y="-1647.2" font-family="Times,serif" font-size="11.00" fill="gray">Form</text>
</g>
<g id="clust6" class="cluster">
<title>cluster_\App\Repository</title>
<path fill="none" stroke="gray" d="M745.44,-590C745.44,-590 885.44,-590 885.44,-590 891.44,-590 897.44,-596 897.44,-602 897.44,-602 897.44,-1082 897.44,-1082 897.44,-1088 891.44,-1094 885.44,-1094 885.44,-1094 745.44,-1094 745.44,-1094 739.44,-1094 733.44,-1088 733.44,-1082 733.44,-1082 733.44,-602 733.44,-602 733.44,-596 739.44,-590 745.44,-590"/>
<text text-anchor="middle" x="815.44" y="-1081.2" font-family="Times,serif" font-size="11.00" fill="gray">Repository</text>
</g>
<g id="clust7" class="cluster">
<title>cluster_\DoctrineMigrations</title>
<path fill="none" stroke="gray" d="M755.94,-16C755.94,-16 874.94,-16 874.94,-16 880.94,-16 886.94,-22 886.94,-28 886.94,-28 886.94,-562 886.94,-562 886.94,-568 880.94,-574 874.94,-574 874.94,-574 755.94,-574 755.94,-574 749.94,-574 743.94,-568 743.94,-562 743.94,-562 743.94,-28 743.94,-28 743.94,-22 749.94,-16 755.94,-16"/>
<text text-anchor="middle" x="815.44" y="-561.2" font-family="Times,serif" font-size="11.00" fill="gray">DoctrineMigrations</text>
</g>
<!-- \\App\\Tests\\Website\\GetWebsitesTest -->
<g id="node1" class="node">
<title>\\App\\Tests\\Website\\GetWebsitesTest</title>
<polygon fill="none" stroke="black" points="862.94,-1720 767.94,-1720 767.94,-1684 862.94,-1684 862.94,-1720"/>
<text text-anchor="middle" x="815.44" y="-1699.2" font-family="Courier,monospace" font-size="11.00">GetWebsitesTest</text>
</g>
<!-- \\Symfony\\Bundle\\FrameworkBundle\\Test\\WebTestCase -->
<g id="node31" class="node">
<title>\\Symfony\\Bundle\\FrameworkBundle\\Test\\WebTestCase</title>
<ellipse fill="none" stroke="black" cx="334.72" cy="-1702" rx="265.35" ry="18"/>
<text text-anchor="middle" x="334.72" y="-1698.3" font-family="Times,serif" font-size="14.00" fill="gray">\Symfony\Bundle\FrameworkBundle\Test\WebTestCase</text>
</g>
<!-- \\App\\Tests\\Website\\GetWebsitesTest&#45;&gt;\\Symfony\\Bundle\\FrameworkBundle\\Test\\WebTestCase -->
<g id="edge1" class="edge">
<title>\\App\\Tests\\Website\\GetWebsitesTest&#45;&gt;\\Symfony\\Bundle\\FrameworkBundle\\Test\\WebTestCase</title>
<path fill="none" stroke="black" d="M767.67,-1702C729.22,-1702 671.32,-1702 610.3,-1702"/>
<polygon fill="none" stroke="black" points="610.08,-1698.5 600.08,-1702 610.08,-1705.5 610.08,-1698.5"/>
</g>
<!-- \\App\\Form\\MassnahmeType -->
<g id="node2" class="node">
<title>\\App\\Form\\MassnahmeType</title>
<polygon fill="none" stroke="black" points="857.94,-1632 772.94,-1632 772.94,-1596 857.94,-1596 857.94,-1632"/>
<text text-anchor="middle" x="815.44" y="-1611.2" font-family="Courier,monospace" font-size="11.00">MassnahmeType</text>
</g>
<!-- \\Symfony\\Component\\Form\\AbstractType -->
<g id="node33" class="node">
<title>\\Symfony\\Component\\Form\\AbstractType</title>
<ellipse fill="none" stroke="black" cx="334.72" cy="-1371" rx="202.26" ry="18"/>
<text text-anchor="middle" x="334.72" y="-1367.3" font-family="Times,serif" font-size="14.00" fill="gray">\Symfony\Component\Form\AbstractType</text>
</g>
<!-- \\App\\Form\\MassnahmeType&#45;&gt;\\Symfony\\Component\\Form\\AbstractType -->
<g id="edge12" class="edge">
<title>\\App\\Form\\MassnahmeType&#45;&gt;\\Symfony\\Component\\Form\\AbstractType</title>
<path fill="none" stroke="black" d="M772.63,-1604.74C755.24,-1600.28 735.04,-1594.3 717.44,-1587 583.09,-1531.27 436.71,-1438.45 371.05,-1394.92"/>
<polygon fill="none" stroke="black" points="372.6,-1391.74 362.33,-1389.11 368.72,-1397.57 372.6,-1391.74"/>
</g>
<!-- \\App\\Form\\MitarbeiterType -->
<g id="node3" class="node">
<title>\\App\\Form\\MitarbeiterType</title>
<polygon fill="none" stroke="black" points="862.94,-1578 767.94,-1578 767.94,-1542 862.94,-1542 862.94,-1578"/>
<text text-anchor="middle" x="815.44" y="-1557.2" font-family="Courier,monospace" font-size="11.00">MitarbeiterType</text>
</g>
<!-- \\App\\Form\\MitarbeiterType&#45;&gt;\\Symfony\\Component\\Form\\AbstractType -->
<g id="edge13" class="edge">
<title>\\App\\Form\\MitarbeiterType&#45;&gt;\\Symfony\\Component\\Form\\AbstractType</title>
<path fill="none" stroke="black" d="M767.68,-1548.3C751.62,-1543.94 733.61,-1538.66 717.44,-1533 593.87,-1489.79 453.26,-1426.23 382.16,-1393.03"/>
<polygon fill="none" stroke="black" points="383.55,-1389.82 373.01,-1388.75 380.58,-1396.16 383.55,-1389.82"/>
</g>
<!-- \\App\\Form\\TeilnehmerType -->
<g id="node4" class="node">
<title>\\App\\Form\\TeilnehmerType</title>
<polygon fill="none" stroke="black" points="860.44,-1524 770.44,-1524 770.44,-1488 860.44,-1488 860.44,-1524"/>
<text text-anchor="middle" x="815.44" y="-1503.2" font-family="Courier,monospace" font-size="11.00">TeilnehmerType</text>
</g>
<!-- \\App\\Form\\TeilnehmerType&#45;&gt;\\Symfony\\Component\\Form\\AbstractType -->
<g id="edge14" class="edge">
<title>\\App\\Form\\TeilnehmerType&#45;&gt;\\Symfony\\Component\\Form\\AbstractType</title>
<path fill="none" stroke="black" d="M770,-1493.67C753.49,-1489.08 734.61,-1483.82 717.44,-1479 608.76,-1448.5 482.79,-1412.79 406.2,-1391.04"/>
<polygon fill="none" stroke="black" points="406.77,-1387.56 396.19,-1388.19 404.85,-1394.29 406.77,-1387.56"/>
</g>
<!-- \\App\\Form\\MassnahmeartType -->
<g id="node5" class="node">
<title>\\App\\Form\\MassnahmeartType</title>
<polygon fill="none" stroke="black" points="865.94,-1470 764.94,-1470 764.94,-1434 865.94,-1434 865.94,-1470"/>
<text text-anchor="middle" x="815.44" y="-1449.2" font-family="Courier,monospace" font-size="11.00">MassnahmeartType</text>
</g>
<!-- \\App\\Form\\MassnahmeartType&#45;&gt;\\Symfony\\Component\\Form\\AbstractType -->
<g id="edge15" class="edge">
<title>\\App\\Form\\MassnahmeartType&#45;&gt;\\Symfony\\Component\\Form\\AbstractType</title>
<path fill="none" stroke="black" d="M764.56,-1443.56C688.08,-1430.62 540.16,-1405.59 439.68,-1388.59"/>
<polygon fill="none" stroke="black" points="440.25,-1385.14 429.8,-1386.92 439.08,-1392.04 440.25,-1385.14"/>
</g>
<!-- \\App\\Form\\FunktionType -->
<g id="node6" class="node">
<title>\\App\\Form\\FunktionType</title>
<polygon fill="none" stroke="black" points="855.44,-1416 775.44,-1416 775.44,-1380 855.44,-1380 855.44,-1416"/>
<text text-anchor="middle" x="815.44" y="-1395.2" font-family="Courier,monospace" font-size="11.00">FunktionType</text>
</g>
<!-- \\App\\Form\\FunktionType&#45;&gt;\\Symfony\\Component\\Form\\AbstractType -->
<g id="edge16" class="edge">
<title>\\App\\Form\\FunktionType&#45;&gt;\\Symfony\\Component\\Form\\AbstractType</title>
<path fill="none" stroke="black" d="M775.26,-1395.79C718.76,-1392.6 610.74,-1386.51 515.93,-1381.16"/>
<polygon fill="none" stroke="black" points="516.1,-1377.67 505.92,-1380.6 515.71,-1384.66 516.1,-1377.67"/>
</g>
<!-- \\App\\Form\\BerufswunschType -->
<g id="node7" class="node">
<title>\\App\\Form\\BerufswunschType</title>
<polygon fill="none" stroke="black" points="865.94,-1362 764.94,-1362 764.94,-1326 865.94,-1326 865.94,-1362"/>
<text text-anchor="middle" x="815.44" y="-1341.2" font-family="Courier,monospace" font-size="11.00">BerufswunschType</text>
</g>
<!-- \\App\\Form\\BerufswunschType&#45;&gt;\\Symfony\\Component\\Form\\AbstractType -->
<g id="edge17" class="edge">
<title>\\App\\Form\\BerufswunschType&#45;&gt;\\Symfony\\Component\\Form\\AbstractType</title>
<path fill="none" stroke="black" d="M764.56,-1346.81C705.88,-1350.12 605.13,-1355.81 516.03,-1360.83"/>
<polygon fill="none" stroke="black" points="515.57,-1357.35 505.78,-1361.41 515.96,-1364.34 515.57,-1357.35"/>
</g>
<!-- \\App\\Form\\FirmaType -->
<g id="node8" class="node">
<title>\\App\\Form\\FirmaType</title>
<polygon fill="none" stroke="black" points="847.44,-1308 783.44,-1308 783.44,-1272 847.44,-1272 847.44,-1308"/>
<text text-anchor="middle" x="815.44" y="-1287.2" font-family="Courier,monospace" font-size="11.00">FirmaType</text>
</g>
<!-- \\App\\Form\\FirmaType&#45;&gt;\\Symfony\\Component\\Form\\AbstractType -->
<g id="edge18" class="edge">
<title>\\App\\Form\\FirmaType&#45;&gt;\\Symfony\\Component\\Form\\AbstractType</title>
<path fill="none" stroke="black" d="M783.4,-1295.25C715.19,-1306.79 549.6,-1334.81 440.06,-1353.34"/>
<polygon fill="none" stroke="black" points="439.25,-1349.93 429.97,-1355.05 440.42,-1356.83 439.25,-1349.93"/>
</g>
<!-- \\App\\Form\\EintragungType -->
<g id="node9" class="node">
<title>\\App\\Form\\EintragungType</title>
<polygon fill="none" stroke="black" points="860.44,-1254 770.44,-1254 770.44,-1218 860.44,-1218 860.44,-1254"/>
<text text-anchor="middle" x="815.44" y="-1233.2" font-family="Courier,monospace" font-size="11.00">EintragungType</text>
</g>
<!-- \\App\\Form\\EintragungType&#45;&gt;\\Symfony\\Component\\Form\\AbstractType -->
<g id="edge19" class="edge">
<title>\\App\\Form\\EintragungType&#45;&gt;\\Symfony\\Component\\Form\\AbstractType</title>
<path fill="none" stroke="black" d="M770,-1248.33C753.49,-1252.92 734.61,-1258.18 717.44,-1263 608.76,-1293.5 482.79,-1329.21 406.2,-1350.96"/>
<polygon fill="none" stroke="black" points="404.85,-1347.71 396.19,-1353.81 406.77,-1354.44 404.85,-1347.71"/>
</g>
<!-- \\App\\Form\\PraktikaType -->
<g id="node10" class="node">
<title>\\App\\Form\\PraktikaType</title>
<polygon fill="none" stroke="black" points="855.44,-1200 775.44,-1200 775.44,-1164 855.44,-1164 855.44,-1200"/>
<text text-anchor="middle" x="815.44" y="-1179.2" font-family="Courier,monospace" font-size="11.00">PraktikaType</text>
</g>
<!-- \\App\\Form\\PraktikaType&#45;&gt;\\Symfony\\Component\\Form\\AbstractType -->
<g id="edge20" class="edge">
<title>\\App\\Form\\PraktikaType&#45;&gt;\\Symfony\\Component\\Form\\AbstractType</title>
<path fill="none" stroke="black" d="M775.38,-1191.63C757.54,-1196.35 736.25,-1202.42 717.44,-1209 593.87,-1252.21 453.26,-1315.77 382.16,-1348.97"/>
<polygon fill="none" stroke="black" points="380.58,-1345.84 373.01,-1353.25 383.55,-1352.18 380.58,-1345.84"/>
</g>
<!-- \\App\\Form\\EintragsbereichType -->
<g id="node11" class="node">
<title>\\App\\Form\\EintragsbereichType</title>
<polygon fill="none" stroke="black" points="873.44,-1146 757.44,-1146 757.44,-1110 873.44,-1110 873.44,-1146"/>
<text text-anchor="middle" x="815.44" y="-1125.2" font-family="Courier,monospace" font-size="11.00">EintragsbereichType</text>
</g>
<!-- \\App\\Form\\EintragsbereichType&#45;&gt;\\Symfony\\Component\\Form\\AbstractType -->
<g id="edge21" class="edge">
<title>\\App\\Form\\EintragsbereichType&#45;&gt;\\Symfony\\Component\\Form\\AbstractType</title>
<path fill="none" stroke="black" d="M757.23,-1141.43C743.96,-1145.23 730.03,-1149.78 717.44,-1155 583.09,-1210.73 436.71,-1303.55 371.05,-1347.08"/>
<polygon fill="none" stroke="black" points="368.72,-1344.43 362.33,-1352.89 372.6,-1350.26 368.72,-1344.43"/>
</g>
<!-- \\App\\Repository\\FunktionRepository -->
<g id="node12" class="node">
<title>\\App\\Repository\\FunktionRepository</title>
<polygon fill="none" stroke="black" points="870.94,-1066 759.94,-1066 759.94,-1030 870.94,-1030 870.94,-1066"/>
<text text-anchor="middle" x="815.44" y="-1045.2" font-family="Courier,monospace" font-size="11.00">FunktionRepository</text>
</g>
<!-- \\Doctrine\\Bundle\\DoctrineBundle\\Repository\\ServiceEntityRepository -->
<g id="node34" class="node">
<title>\\Doctrine\\Bundle\\DoctrineBundle\\Repository\\ServiceEntityRepository</title>
<ellipse fill="none" stroke="black" cx="334.72" cy="-832" rx="334.94" ry="18"/>
<text text-anchor="middle" x="334.72" y="-828.3" font-family="Times,serif" font-size="14.00" fill="gray">\Doctrine\Bundle\DoctrineBundle\Repository\ServiceEntityRepository</text>
</g>
<!-- \\App\\Repository\\FunktionRepository&#45;&gt;\\Doctrine\\Bundle\\DoctrineBundle\\Repository\\ServiceEntityRepository -->
<g id="edge22" class="edge">
<title>\\App\\Repository\\FunktionRepository&#45;&gt;\\Doctrine\\Bundle\\DoctrineBundle\\Repository\\ServiceEntityRepository</title>
<path fill="none" stroke="black" d="M759.73,-1034.71C745.77,-1030.79 730.91,-1026.16 717.44,-1021 588.23,-971.53 443.99,-893.42 375.71,-854.95"/>
<polygon fill="none" stroke="black" points="377.41,-851.89 366.98,-850.02 373.96,-857.99 377.41,-851.89"/>
</g>
<!-- \\App\\Repository\\PraktikaRepository -->
<g id="node13" class="node">
<title>\\App\\Repository\\PraktikaRepository</title>
<polygon fill="none" stroke="black" points="870.94,-1012 759.94,-1012 759.94,-976 870.94,-976 870.94,-1012"/>
<text text-anchor="middle" x="815.44" y="-991.2" font-family="Courier,monospace" font-size="11.00">PraktikaRepository</text>
</g>
<!-- \\App\\Repository\\PraktikaRepository&#45;&gt;\\Doctrine\\Bundle\\DoctrineBundle\\Repository\\ServiceEntityRepository -->
<g id="edge23" class="edge">
<title>\\App\\Repository\\PraktikaRepository&#45;&gt;\\Doctrine\\Bundle\\DoctrineBundle\\Repository\\ServiceEntityRepository</title>
<path fill="none" stroke="black" d="M759.87,-979.51C745.97,-975.63 731.11,-971.31 717.44,-967 601,-930.25 466.83,-881.22 392.61,-853.49"/>
<polygon fill="none" stroke="black" points="393.57,-850.12 382.98,-849.89 391.12,-856.67 393.57,-850.12"/>
</g>
<!-- \\App\\Repository\\BerufswunschRepository -->
<g id="node14" class="node">
<title>\\App\\Repository\\BerufswunschRepository</title>
<polygon fill="none" stroke="black" points="881.44,-958 749.44,-958 749.44,-922 881.44,-922 881.44,-958"/>
<text text-anchor="middle" x="815.44" y="-937.2" font-family="Courier,monospace" font-size="11.00">BerufswunschRepository</text>
</g>
<!-- \\App\\Repository\\BerufswunschRepository&#45;&gt;\\Doctrine\\Bundle\\DoctrineBundle\\Repository\\ServiceEntityRepository -->
<g id="edge24" class="edge">
<title>\\App\\Repository\\BerufswunschRepository&#45;&gt;\\Doctrine\\Bundle\\DoctrineBundle\\Repository\\ServiceEntityRepository</title>
<path fill="none" stroke="black" d="M749.38,-925.32C664.94,-906.27 517.28,-872.96 423.12,-851.72"/>
<polygon fill="none" stroke="black" points="423.86,-848.3 413.33,-849.51 422.32,-855.12 423.86,-848.3"/>
</g>
<!-- \\App\\Repository\\EintragungRepository -->
<g id="node15" class="node">
<title>\\App\\Repository\\EintragungRepository</title>
<polygon fill="none" stroke="black" points="876.44,-904 754.44,-904 754.44,-868 876.44,-868 876.44,-904"/>
<text text-anchor="middle" x="815.44" y="-883.2" font-family="Courier,monospace" font-size="11.00">EintragungRepository</text>
</g>
<!-- \\App\\Repository\\EintragungRepository&#45;&gt;\\Doctrine\\Bundle\\DoctrineBundle\\Repository\\ServiceEntityRepository -->
<g id="edge25" class="edge">
<title>\\App\\Repository\\EintragungRepository&#45;&gt;\\Doctrine\\Bundle\\DoctrineBundle\\Repository\\ServiceEntityRepository</title>
<path fill="none" stroke="black" d="M754.3,-879.22C688.28,-871.77 579.7,-859.52 489.67,-849.37"/>
<polygon fill="none" stroke="black" points="489.96,-845.88 479.63,-848.23 489.17,-852.83 489.96,-845.88"/>
</g>
<!-- \\App\\Repository\\FirmaRepository -->
<g id="node16" class="node">
<title>\\App\\Repository\\FirmaRepository</title>
<polygon fill="none" stroke="black" points="862.94,-850 767.94,-850 767.94,-814 862.94,-814 862.94,-850"/>
<text text-anchor="middle" x="815.44" y="-829.2" font-family="Courier,monospace" font-size="11.00">FirmaRepository</text>
</g>
<!-- \\App\\Repository\\FirmaRepository&#45;&gt;\\Doctrine\\Bundle\\DoctrineBundle\\Repository\\ServiceEntityRepository -->
<g id="edge26" class="edge">
<title>\\App\\Repository\\FirmaRepository&#45;&gt;\\Doctrine\\Bundle\\DoctrineBundle\\Repository\\ServiceEntityRepository</title>
<path fill="none" stroke="black" d="M767.67,-832C744.33,-832 713.81,-832 679.79,-832"/>
<polygon fill="none" stroke="black" points="679.61,-828.5 669.61,-832 679.61,-835.5 679.61,-828.5"/>
</g>
<!-- \\App\\Repository\\MassnahmeartRepository -->
<g id="node17" class="node">
<title>\\App\\Repository\\MassnahmeartRepository</title>
<polygon fill="none" stroke="black" points="881.44,-796 749.44,-796 749.44,-760 881.44,-760 881.44,-796"/>
<text text-anchor="middle" x="815.44" y="-775.2" font-family="Courier,monospace" font-size="11.00">MassnahmeartRepository</text>
</g>
<!-- \\App\\Repository\\MassnahmeartRepository&#45;&gt;\\Doctrine\\Bundle\\DoctrineBundle\\Repository\\ServiceEntityRepository -->
<g id="edge27" class="edge">
<title>\\App\\Repository\\MassnahmeartRepository&#45;&gt;\\Doctrine\\Bundle\\DoctrineBundle\\Repository\\ServiceEntityRepository</title>
<path fill="none" stroke="black" d="M749.38,-785.34C683.04,-792.82 577.69,-804.71 489.91,-814.61"/>
<polygon fill="none" stroke="black" points="489.38,-811.14 479.84,-815.74 490.17,-818.1 489.38,-811.14"/>
</g>
<!-- \\App\\Repository\\EintragsbereichRepository -->
<g id="node18" class="node">
<title>\\App\\Repository\\EintragsbereichRepository</title>
<polygon fill="none" stroke="black" points="889.44,-742 741.44,-742 741.44,-706 889.44,-706 889.44,-742"/>
<text text-anchor="middle" x="815.44" y="-721.2" font-family="Courier,monospace" font-size="11.00">EintragsbereichRepository</text>
</g>
<!-- \\App\\Repository\\EintragsbereichRepository&#45;&gt;\\Doctrine\\Bundle\\DoctrineBundle\\Repository\\ServiceEntityRepository -->
<g id="edge28" class="edge">
<title>\\App\\Repository\\EintragsbereichRepository&#45;&gt;\\Doctrine\\Bundle\\DoctrineBundle\\Repository\\ServiceEntityRepository</title>
<path fill="none" stroke="black" d="M741.21,-740.52C655.67,-759.82 514.26,-791.72 423.07,-812.29"/>
<polygon fill="none" stroke="black" points="422.29,-808.88 413.31,-814.5 423.83,-815.71 422.29,-808.88"/>
</g>
<!-- \\App\\Repository\\MitarbeiterRepository -->
<g id="node19" class="node">
<title>\\App\\Repository\\MitarbeiterRepository</title>
<polygon fill="none" stroke="black" points="878.94,-688 751.94,-688 751.94,-652 878.94,-652 878.94,-688"/>
<text text-anchor="middle" x="815.44" y="-667.2" font-family="Courier,monospace" font-size="11.00">MitarbeiterRepository</text>
</g>
<!-- \\App\\Repository\\MitarbeiterRepository&#45;&gt;\\Doctrine\\Bundle\\DoctrineBundle\\Repository\\ServiceEntityRepository -->
<g id="edge29" class="edge">
<title>\\App\\Repository\\MitarbeiterRepository&#45;&gt;\\Doctrine\\Bundle\\DoctrineBundle\\Repository\\ServiceEntityRepository</title>
<path fill="none" stroke="black" d="M751.9,-686.73C740.4,-690 728.53,-693.5 717.44,-697 601,-733.75 466.83,-782.78 392.61,-810.51"/>
<polygon fill="none" stroke="black" points="391.12,-807.33 382.98,-814.11 393.57,-813.88 391.12,-807.33"/>
</g>
<!-- \\App\\Repository\\MassnahmeRepository -->
<g id="node20" class="node">
<title>\\App\\Repository\\MassnahmeRepository</title>
<polygon fill="none" stroke="black" points="873.44,-634 757.44,-634 757.44,-598 873.44,-598 873.44,-634"/>
<text text-anchor="middle" x="815.44" y="-613.2" font-family="Courier,monospace" font-size="11.00">MassnahmeRepository</text>
</g>
<!-- \\App\\Repository\\MassnahmeRepository&#45;&gt;\\Doctrine\\Bundle\\DoctrineBundle\\Repository\\ServiceEntityRepository -->
<g id="edge30" class="edge">
<title>\\App\\Repository\\MassnahmeRepository&#45;&gt;\\Doctrine\\Bundle\\DoctrineBundle\\Repository\\ServiceEntityRepository</title>
<path fill="none" stroke="black" d="M757.44,-629.94C744.15,-633.71 730.17,-638.13 717.44,-643 588.23,-692.47 443.99,-770.58 375.71,-809.05"/>
<polygon fill="none" stroke="black" points="373.96,-806.01 366.98,-813.98 377.41,-812.11 373.96,-806.01"/>
</g>
<!-- \\DoctrineMigrations\\Version20190607101209 -->
<g id="node21" class="node">
<title>\\DoctrineMigrations\\Version20190607101209</title>
<polygon fill="none" stroke="black" points="878.94,-546 751.94,-546 751.94,-510 878.94,-510 878.94,-546"/>
<text text-anchor="middle" x="815.44" y="-525.2" font-family="Courier,monospace" font-size="11.00">Version20190607101209</text>
</g>
<!-- \\Doctrine\\Migrations\\AbstractMigration -->
<g id="node32" class="node">
<title>\\Doctrine\\Migrations\\AbstractMigration</title>
<ellipse fill="none" stroke="black" cx="334.72" cy="-285" rx="195.77" ry="18"/>
<text text-anchor="middle" x="334.72" y="-281.3" font-family="Times,serif" font-size="14.00" fill="gray">\Doctrine\Migrations\AbstractMigration</text>
</g>
<!-- \\DoctrineMigrations\\Version20190607101209&#45;&gt;\\Doctrine\\Migrations\\AbstractMigration -->
<g id="edge2" class="edge">
<title>\\DoctrineMigrations\\Version20190607101209&#45;&gt;\\Doctrine\\Migrations\\AbstractMigration</title>
<path fill="none" stroke="black" d="M751.84,-512.99C740.23,-509.53 728.34,-505.52 717.44,-501 583.09,-445.27 436.71,-352.45 371.05,-308.92"/>
<polygon fill="none" stroke="black" points="372.6,-305.74 362.33,-303.11 368.72,-311.57 372.6,-305.74"/>
</g>
<!-- \\DoctrineMigrations\\Version20190607095217 -->
<g id="node22" class="node">
<title>\\DoctrineMigrations\\Version20190607095217</title>
<polygon fill="none" stroke="black" points="878.94,-492 751.94,-492 751.94,-456 878.94,-456 878.94,-492"/>
<text text-anchor="middle" x="815.44" y="-471.2" font-family="Courier,monospace" font-size="11.00">Version20190607095217</text>
</g>
<!-- \\DoctrineMigrations\\Version20190607095217&#45;&gt;\\Doctrine\\Migrations\\AbstractMigration -->
<g id="edge3" class="edge">
<title>\\DoctrineMigrations\\Version20190607095217&#45;&gt;\\Doctrine\\Migrations\\AbstractMigration</title>
<path fill="none" stroke="black" d="M751.71,-457.83C740.23,-454.5 728.41,-450.84 717.44,-447 593.87,-403.79 453.26,-340.23 382.16,-307.03"/>
<polygon fill="none" stroke="black" points="383.55,-303.82 373.01,-302.75 380.58,-310.16 383.55,-303.82"/>
</g>
<!-- \\DoctrineMigrations\\Version20190612073338 -->
<g id="node23" class="node">
<title>\\DoctrineMigrations\\Version20190612073338</title>
<polygon fill="none" stroke="black" points="878.94,-438 751.94,-438 751.94,-402 878.94,-402 878.94,-438"/>
<text text-anchor="middle" x="815.44" y="-417.2" font-family="Courier,monospace" font-size="11.00">Version20190612073338</text>
</g>
<!-- \\DoctrineMigrations\\Version20190612073338&#45;&gt;\\Doctrine\\Migrations\\AbstractMigration -->
<g id="edge4" class="edge">
<title>\\DoctrineMigrations\\Version20190612073338&#45;&gt;\\Doctrine\\Migrations\\AbstractMigration</title>
<path fill="none" stroke="black" d="M751.81,-402.61C740.38,-399.42 728.55,-396.12 717.44,-393 608.6,-362.46 482.42,-326.68 405.87,-304.94"/>
<polygon fill="none" stroke="black" points="406.44,-301.47 395.86,-302.1 404.52,-308.2 406.44,-301.47"/>
</g>
<!-- \\DoctrineMigrations\\Version20190612065750 -->
<g id="node24" class="node">
<title>\\DoctrineMigrations\\Version20190612065750</title>
<polygon fill="none" stroke="black" points="878.94,-384 751.94,-384 751.94,-348 878.94,-348 878.94,-384"/>
<text text-anchor="middle" x="815.44" y="-363.2" font-family="Courier,monospace" font-size="11.00">Version20190612065750</text>
</g>
<!-- \\DoctrineMigrations\\Version20190612065750&#45;&gt;\\Doctrine\\Migrations\\AbstractMigration -->
<g id="edge5" class="edge">
<title>\\DoctrineMigrations\\Version20190612065750&#45;&gt;\\Doctrine\\Migrations\\AbstractMigration</title>
<path fill="none" stroke="black" d="M751.86,-355.41C672.43,-341.97 534.31,-318.6 439.12,-302.5"/>
<polygon fill="none" stroke="black" points="439.62,-299.03 429.18,-300.81 438.46,-305.93 439.62,-299.03"/>
</g>
<!-- \\DoctrineMigrations\\Version20190607102241 -->
<g id="node25" class="node">
<title>\\DoctrineMigrations\\Version20190607102241</title>
<polygon fill="none" stroke="black" points="878.94,-330 751.94,-330 751.94,-294 878.94,-294 878.94,-330"/>
<text text-anchor="middle" x="815.44" y="-309.2" font-family="Courier,monospace" font-size="11.00">Version20190607102241</text>
</g>
<!-- \\DoctrineMigrations\\Version20190607102241&#45;&gt;\\Doctrine\\Migrations\\AbstractMigration -->
<g id="edge6" class="edge">
<title>\\DoctrineMigrations\\Version20190607102241&#45;&gt;\\Doctrine\\Migrations\\AbstractMigration</title>
<path fill="none" stroke="black" d="M751.86,-308.47C691.09,-305.04 595.99,-299.68 512.03,-294.94"/>
<polygon fill="none" stroke="black" points="512.03,-291.44 501.85,-294.37 511.63,-298.43 512.03,-291.44"/>
</g>
<!-- \\DoctrineMigrations\\Version20190612070535 -->
<g id="node26" class="node">
<title>\\DoctrineMigrations\\Version20190612070535</title>
<polygon fill="none" stroke="black" points="878.94,-276 751.94,-276 751.94,-240 878.94,-240 878.94,-276"/>
<text text-anchor="middle" x="815.44" y="-255.2" font-family="Courier,monospace" font-size="11.00">Version20190612070535</text>
</g>
<!-- \\DoctrineMigrations\\Version20190612070535&#45;&gt;\\Doctrine\\Migrations\\AbstractMigration -->
<g id="edge7" class="edge">
<title>\\DoctrineMigrations\\Version20190612070535&#45;&gt;\\Doctrine\\Migrations\\AbstractMigration</title>
<path fill="none" stroke="black" d="M751.86,-261.53C691.09,-264.96 595.99,-270.32 512.03,-275.06"/>
<polygon fill="none" stroke="black" points="511.63,-271.57 501.85,-275.63 512.03,-278.56 511.63,-271.57"/>
</g>
<!-- \\DoctrineMigrations\\Version20190607064106 -->
<g id="node27" class="node">
<title>\\DoctrineMigrations\\Version20190607064106</title>
<polygon fill="none" stroke="black" points="878.94,-222 751.94,-222 751.94,-186 878.94,-186 878.94,-222"/>
<text text-anchor="middle" x="815.44" y="-201.2" font-family="Courier,monospace" font-size="11.00">Version20190607064106</text>
</g>
<!-- \\DoctrineMigrations\\Version20190607064106&#45;&gt;\\Doctrine\\Migrations\\AbstractMigration -->
<g id="edge8" class="edge">
<title>\\DoctrineMigrations\\Version20190607064106&#45;&gt;\\Doctrine\\Migrations\\AbstractMigration</title>
<path fill="none" stroke="black" d="M751.86,-214.59C672.43,-228.03 534.31,-251.4 439.12,-267.5"/>
<polygon fill="none" stroke="black" points="438.46,-264.07 429.18,-269.19 439.62,-270.97 438.46,-264.07"/>
</g>
<!-- \\DoctrineMigrations\\Version20190612065029 -->
<g id="node28" class="node">
<title>\\DoctrineMigrations\\Version20190612065029</title>
<polygon fill="none" stroke="black" points="878.94,-168 751.94,-168 751.94,-132 878.94,-132 878.94,-168"/>
<text text-anchor="middle" x="815.44" y="-147.2" font-family="Courier,monospace" font-size="11.00">Version20190612065029</text>
</g>
<!-- \\DoctrineMigrations\\Version20190612065029&#45;&gt;\\Doctrine\\Migrations\\AbstractMigration -->
<g id="edge9" class="edge">
<title>\\DoctrineMigrations\\Version20190612065029&#45;&gt;\\Doctrine\\Migrations\\AbstractMigration</title>
<path fill="none" stroke="black" d="M751.81,-167.39C740.38,-170.58 728.55,-173.88 717.44,-177 608.6,-207.54 482.42,-243.32 405.87,-265.06"/>
<polygon fill="none" stroke="black" points="404.52,-261.8 395.86,-267.9 406.44,-268.53 404.52,-261.8"/>
</g>
<!-- \\DoctrineMigrations\\Version20190607093854 -->
<g id="node29" class="node">
<title>\\DoctrineMigrations\\Version20190607093854</title>
<polygon fill="none" stroke="black" points="878.94,-114 751.94,-114 751.94,-78 878.94,-78 878.94,-114"/>
<text text-anchor="middle" x="815.44" y="-93.2" font-family="Courier,monospace" font-size="11.00">Version20190607093854</text>
</g>
<!-- \\DoctrineMigrations\\Version20190607093854&#45;&gt;\\Doctrine\\Migrations\\AbstractMigration -->
<g id="edge10" class="edge">
<title>\\DoctrineMigrations\\Version20190607093854&#45;&gt;\\Doctrine\\Migrations\\AbstractMigration</title>
<path fill="none" stroke="black" d="M751.71,-112.17C740.23,-115.5 728.41,-119.16 717.44,-123 593.87,-166.21 453.26,-229.77 382.16,-262.97"/>
<polygon fill="none" stroke="black" points="380.58,-259.84 373.01,-267.25 383.55,-266.18 380.58,-259.84"/>
</g>
<!-- \\DoctrineMigrations\\Version20190607065618 -->
<g id="node30" class="node">
<title>\\DoctrineMigrations\\Version20190607065618</title>
<polygon fill="none" stroke="black" points="878.94,-60 751.94,-60 751.94,-24 878.94,-24 878.94,-60"/>
<text text-anchor="middle" x="815.44" y="-39.2" font-family="Courier,monospace" font-size="11.00">Version20190607065618</text>
</g>
<!-- \\DoctrineMigrations\\Version20190607065618&#45;&gt;\\Doctrine\\Migrations\\AbstractMigration -->
<g id="edge11" class="edge">
<title>\\DoctrineMigrations\\Version20190607065618&#45;&gt;\\Doctrine\\Migrations\\AbstractMigration</title>
<path fill="none" stroke="black" d="M751.84,-57.01C740.23,-60.47 728.34,-64.48 717.44,-69 583.09,-124.73 436.71,-217.55 371.05,-261.08"/>
<polygon fill="none" stroke="black" points="368.72,-258.43 362.33,-266.89 372.6,-264.26 368.72,-258.43"/>
</g>
</g>
</svg>
